<?xml version="1.0" encoding="UTF-8"?>
<svg width="38px" height="43px" viewBox="0 0 38 43" version="1.1" xmlns="http://www.w3.org/2000/svg" xmlns:xlink="http://www.w3.org/1999/xlink">
    <!-- Generator: Sketch 50.2 (55047) - http://www.bohemiancoding.com/sketch -->
    <title>icon_preview</title>
    <desc>Created with Sketch.</desc>
    <defs></defs>
    <g id="icon_preview" stroke="none" stroke-width="1" fill="none" fill-rule="evenodd">
        <path d="M25.8439475,22.5960136 C25.3432183,19.4691298 22.6548371,17.2503646 19.5892076,17.2503646 C19.2547399,17.2503646 18.9154108,17.2766164 18.5731648,17.3320369 C15.1059796,17.8862421 12.754983,21.1336898 13.3091881,24.6018474 C13.8099174,27.7277589 16.4982985,29.9474964 19.5639281,29.9474964 C19.8983957,29.9474964 20.2377248,29.9202722 20.5789985,29.865824 C24.0471561,29.3106466 26.3991249,26.0631988 25.8439475,22.5960136 M37,34.3801653 L35.2566845,36.7875547 L27.1808459,30.9518717 L27.0048614,29.852212 L26.5663588,29.5216334 C25.1973748,31.1404959 23.2673797,32.2926592 21.0252795,32.6514341 C20.5342732,32.7301896 20.0471561,32.7681089 19.5649003,32.7681089 C15.1400097,32.7681089 11.2459893,29.5566359 10.5245503,25.0471561 C9.72435586,20.0476422 13.1283422,15.3466213 18.1278561,14.5464268 C18.6188624,14.4686437 19.1069519,14.4297521 19.5882353,14.4297521 C24.0131259,14.4297521 27.9081186,17.6412251 28.6295576,22.1497326 C28.9883325,24.3928051 28.4963539,26.5853184 27.3850267,28.3908605 L27.8351969,28.7049101 L28.9358289,28.5289256 M33.3762761,37.5809431 L33.3762761,40.2275158 C33.3762761,41.1317453 32.6392805,41.8687409 31.7340788,41.8687409 L4.64219737,41.8687409 C3.73602333,41.8687409 3,41.1317453 3,40.2275158 L3,1.64122509 C3,0.736995625 3.73602333,0 4.64219737,0 L24.4817696,0 L24.6694215,0.0233349538 L24.7141468,0.0379193 L24.8755469,0.105979582 L24.9299951,0.137092854 L25.0933398,0.275157997 L25.0991736,0.280991736 L33.1720953,9.50218765 C33.3043267,9.65192027 33.3655809,9.84151677 33.3665532,10.0340301 C33.3714147,10.0641711 33.3762761,10.0952844 33.3762761,9.85318425 L33.3762761,29.5945552 L31.7340788,28.4044725 L31.7340788,13.6820613 L31.7340788,10.8643656 L24.4817696,10.8643656 C24.0286825,10.8643656 23.6601847,10.4968401 23.6601847,10.0427807 L23.6601847,1.64219737 L4.64219737,1.64219737 L4.64219737,13.6820613 L4.64219737,14.9761789 L4.64219737,39.7822071 L31.7340788,39.7822071 L31.7340788,37.2075839 L31.7340788,36.3937773" id="Fill-1" fill="#0085C1"></path>
    </g>
</svg>