<?xml version="1.0" encoding="UTF-8"?>
<svg width="29px" height="29px" viewBox="0 0 29 29" version="1.1" xmlns="http://www.w3.org/2000/svg" xmlns:xlink="http://www.w3.org/1999/xlink">
    <!-- Generator: Sketch 50.2 (55047) - http://www.bohemiancoding.com/sketch -->
    <title>icon_importar_respuestas</title>
    <desc>Created with Sketch.</desc>
    <defs></defs>
    <g id="icon_importar_respuestas" stroke="none" stroke-width="1" fill="none" fill-rule="evenodd">
        <path d="M22.471,10.844 L22.471,11.585 L22.471,25.805 L6.942,25.805 L6.942,11.585 L6.942,10.844 L6.942,3.942 L17.843,3.942 L17.843,8.757 C17.843,9.017 18.054,9.228 18.314,9.228 L22.471,9.228 L22.471,10.844 Z M23.412,8.805 L23.412,26.059 C23.412,26.578 22.99,27 22.471,27 L6.942,27 C6.422,27 6,26.578 6,26.059 L6,3.942 C6,3.423 6.422,3 6.942,3 L18.314,3 C18.35,3 18.387,3.006 18.422,3.014 C18.43,3.016 18.438,3.02 18.447,3.023 C18.479,3.032 18.511,3.045 18.54,3.061 C18.551,3.067 18.56,3.073 18.571,3.079 C18.605,3.102 18.637,3.127 18.664,3.158 C18.665,3.159 18.667,3.16 18.668,3.161 L23.295,8.448 C23.371,8.533 23.406,8.642 23.407,8.752 C23.409,8.77 23.412,8.787 23.412,8.805 Z M12.3216,13.4846 L10.8966,13.4846 L10.8966,21.2096 L9.4766,21.2096 L11.6086,24.9016 L13.7406,21.2096 L12.3216,21.2096 L12.3216,13.4846 Z M18.5164,21.2092 L18.5164,13.4842 L17.0914,13.4842 L17.0914,21.2092 L15.6714,21.2092 L17.8034,24.9012 L19.9354,21.2092 L18.5164,21.2092 Z" fill="#0085C1"></path>
    </g>
</svg>