<?xml version="1.0" encoding="UTF-8"?>
<svg width="38px" height="43px" viewBox="0 0 38 43" version="1.1" xmlns="http://www.w3.org/2000/svg" xmlns:xlink="http://www.w3.org/1999/xlink">
    <!-- Generator: Sketch 50.2 (55047) - http://www.bohemiancoding.com/sketch -->
    <title>icon_pdf_off</title>
    <desc>Created with Sketch.</desc>
    <defs></defs>
    <g id="icon_pdf_off" stroke="none" stroke-width="1" fill="none" fill-rule="evenodd">
        <path d="M34.6524207,20.0340433 L29.9146779,20.0340433 L29.9146779,22.8505963 L34.340897,22.8505963 L34.340897,25.118467 L29.9146779,25.118467 L29.9146779,30.0747197 L27.11792,30.0747197 L27.11792,17.7479825 L34.6524207,17.7479825 L34.6524207,20.0340433 Z M32.2603532,39.9993008 L5.02114069,39.9993008 L5.02114069,32.0467348 L32.2603532,32.0467348 L32.2603532,39.9993008 Z M3.76006604,30.0746433 L3.76006604,17.9122279 C4.61912538,17.7667075 5.82685275,17.6564973 7.52769852,17.6564973 C9.24658149,17.6564973 10.4722696,17.9857524 11.2949489,18.6445684 C12.0815537,19.2660107 12.6106701,20.2903854 12.6106701,21.4975014 C12.6106701,22.7049995 12.2094191,23.7290685 11.4772315,24.4235767 C10.5263812,25.3199333 9.11833402,25.72256 7.47190552,25.72256 C7.10665245,25.72256 6.77640375,25.7039878 6.52151381,25.667302 L6.52151381,30.074949 L3.76006604,30.074949 L3.76006604,30.0746433 Z M25.2869161,23.6182468 C25.2869161,25.9780614 24.4276274,27.6052298 23.2370965,28.6115674 C21.9400239,29.6905123 19.9643403,30.2023558 17.551102,30.2023558 C16.1065983,30.2023558 15.0826821,30.1108705 14.3868746,30.0197674 L14.3868746,17.9122279 C15.4109437,17.7479825 16.7468421,17.6564973 18.1550421,17.6564973 C20.4947559,17.6564973 22.0130898,18.0774669 23.2023979,18.9730592 C24.4820447,19.9242152 25.2869161,21.4418612 25.2869161,23.6182468 Z M5.02114069,1.65124351 L24.1430067,1.65124351 L24.1430067,10.0976158 C24.1430067,10.5536663 24.5130748,10.9230465 24.9685138,10.9230465 L32.2602767,10.9230465 L32.2602767,15.0584542 L5.02114069,15.0584542 L5.02114069,1.65124351 Z M34.921985,15.0579192 C36.2246369,15.0579192 37.2814174,16.1140883 37.2814938,17.4175045 L37.2814938,29.6873787 C37.2814938,30.9899542 36.2247133,32.0467348 34.9220614,32.0467348 L33.9112909,32.0467348 L33.9112909,40.4461034 C33.9112909,41.3562171 33.1703905,42.0970412 32.2603532,42.0970412 L5.02121712,42.0970412 C4.11033908,42.0970412 3.37035576,41.3561407 3.37035576,40.4461034 L3.37035576,32.0467348 L2.35966174,32.0467348 C1.0566277,32.0467348 -1.42108547e-14,30.9899542 -1.42108547e-14,29.6873787 L-1.42108547e-14,17.4171224 C-1.42108547e-14,16.1136298 1.0566277,15.0575371 2.35966174,15.0575371 L3.37027933,15.0575371 L3.37027933,1.65093779 C3.37027933,0.740824036 4.11026265,0 5.02114069,0 L24.9685138,0 C25.0330197,0 25.0966849,0.00909502324 25.1579043,0.0236164889 C25.1732665,0.0275907848 25.1869472,0.0338579437 25.2023094,0.0381379546 C25.2587138,0.0550287121 25.3135133,0.0784159147 25.3651027,0.10661813 C25.3836749,0.116859584 25.4014828,0.126795324 25.4190614,0.138641783 C25.4787523,0.177544025 25.5351567,0.22248414 25.5835361,0.276519278 C25.5851411,0.279117856 25.5875868,0.279958573 25.5900325,0.282327864 L33.7065383,9.55405442 C33.8390658,9.70477194 33.9007438,9.89500314 33.9023488,10.0886736 C33.9063231,10.1194744 33.9112145,10.1501224 33.9112145,10.180541 L33.9112145,15.0579192 L34.921985,15.0579192 Z M18.4477337,19.7965104 C17.8252214,19.7965104 17.4238175,19.8513098 17.1852069,19.9061857 L17.1852069,27.9711784 C17.423359,28.026895 17.8074899,28.026895 18.155088,28.026895 C20.6784601,28.04455 22.3245829,26.6553043 22.3245829,23.7106568 C22.3430787,21.1492995 20.8430113,19.7965104 18.4477337,19.7965104 Z M9.84994839,21.5700858 C9.84994839,20.4364943 9.06280852,19.7599469 7.67371568,19.7599469 C7.10707281,19.7599469 6.72317111,19.8145934 6.52185774,19.8694693 L6.52185774,23.5094657 C6.75985692,23.5635009 7.05242624,23.5819966 7.45367726,23.5819966 C8.93570748,23.5819966 9.84994839,22.8323833 9.84994839,21.5700858 Z" id="icon_pdf" fill="#D4D4D9"></path>
    </g>
</svg>