<?xml version="1.0" encoding="UTF-8"?>
<svg width="29px" height="29px" viewBox="0 0 29 29" version="1.1" xmlns="http://www.w3.org/2000/svg" xmlns:xlink="http://www.w3.org/1999/xlink">
    <!-- Generator: Sketch 50.2 (55047) - http://www.bohemiancoding.com/sketch -->
    <title>icon_editar_respuestas</title>
    <desc>Created with Sketch.</desc>
    <defs></defs>
    <g id="icon_editar_respuestas" stroke="none" stroke-width="1" fill="none" fill-rule="evenodd">
        <path d="M22.1846783,20.108 L23.1093206,19.167 L23.1093206,26.058 C23.1093206,26.578 22.6946564,27 22.1846783,27 L6.92562485,27 C6.41466421,27 6,26.578 6,26.058 L6,3.941 C6,3.422 6.41466421,3 6.92562485,3 L18.099941,3 C18.1353152,3 18.1716721,3.005 18.2060636,3.013 C18.2139246,3.015 18.2217855,3.019 18.2306291,3.021 C18.2620728,3.031 18.2935165,3.045 18.3220124,3.06 C18.3328212,3.066 18.3416647,3.072 18.3524735,3.079 C18.3858825,3.101 18.4173262,3.127 18.4438569,3.158 C18.4448395,3.159 18.4468047,3.16 18.4477873,3.161 L22.9943544,8.447 C23.0690333,8.533 23.1034249,8.641 23.1044075,8.752 C23.1063727,8.769 23.1093206,8.787 23.1093206,8.804 L23.1093206,10.637 L22.9285191,10.821 L22.2338092,11.528 L22.1846783,11.578 L22.1846783,10.843 L22.1846783,9.227 L18.099941,9.227 C17.8444607,9.227 17.6371286,9.016 17.6371286,8.756 L17.6371286,3.941 L6.92562485,3.941 L6.92562485,10.843 L6.92562485,11.585 L6.92562485,25.804 L22.1846783,25.804 L22.1846783,20.108 Z M22.8179747,12.3482 L25.6194147,15.1992 L17.355609,23.6082 L14.5551516,23.6082 L14.5551516,20.7572 L22.8179747,12.3482 Z M25.51398,9.9244 C25.7242599,9.9244 25.8991657,9.9954 26.0386972,10.1384 L27.78972,11.9204 C27.9292516,12.0634 28,12.2404 28,12.4544 C28,12.6684 27.9292516,12.8464 27.78972,12.9884 L26.4238829,14.3784 L23.6234256,11.5284 L24.9882801,10.1384 C25.1287942,9.9954 25.3037,9.9244 25.51398,9.9244 Z" id="Fill-1" fill="#0085C1"></path>
    </g>
</svg>